<svg version="1.2" xmlns="http://www.w3.org/2000/svg" viewBox="0 0 713 283" width="713" height="283">
	<title>Griline_LOGO_SVG-02_RUDAS</title>
	<style>
		.s0 { fill: #ffffff } 
		.s1 { fill: #27150e } 
	</style>
	<g id="LOGOS">
		<g id="_x32_">
			<g>
				<filter id="f0">
					<feFlood flood-color="#000000" flood-opacity="1" />
					<feBlend mode="normal" in2="SourceGraphic"/>
					<feComposite in2="SourceAlpha" operator="in" />
				</filter>
				<g filter="url(#f0)">
					<g>
						<g>
							<path class="s0" d="m78.2 204.1c-4.6 0.6-6.9 1-11.5 1.6-13.6 1.7-31-6.5-30.1-22.4q0-58.2 0-116.3c0.2-16.3 15.2-26.7 30.5-26.5 4.6 0 6.9 0 11.6 0 13.7-0.4 29.1 10.4 29.3 25 0 7 0 10.6 0 17.6q-15.9 9-31.6 18.5 0-16.3 0-32.6c0-2.2-8.2-2-8.2 0q0 22.3-0.1 44.7 19.9-1.3 39.9-2.4-0.1 31.9-0.2 63.8c-1 15.4-15.4 26.4-29.6 29zm-10.1-28.5c0 3 8.2 2 8.2-1.4q0-22.1 0-44.1c-0.8 0-4.3-4.3-8.2-9.4q0 27.5 0 54.9z"/>
							<path class="s0" d="m191.3 190.9q-6.6-19.6-13.1-39.3-0.1 20.2-0.1 40.4-17.1 1.5-34.1 3.2 0.2-77.2 0.4-154.4 20.5 0 40.9 0c13-0.4 29.9 8.3 30.2 22.9q0 18.6-0.1 37.2c0.1 9.2-3.7 17.8-11.6 23.1 1.9 5.9 4.7 12.4 6.6 18.2q7.7 23.1 15.6 46.2-17.4 1.1-34.7 2.5zm-13.5-123.2c-0.5 0-0.8 0-1.3 0q-0.1 19.4-0.1 38.9c3.3-1.2 4.9-1.8 8.2-3 0.3 0 0.3-1.1 0.3-1.8q0-15.2 0.1-30.4c-0.8-3.6-2.2-3.8-7.2-3.7z"/>
							<path class="s0" d="m252.1 186.7q0.2-72.8 0.3-145.5 17.2 0 34.4 0-0.1 72-0.2 144-17.3 0.7-34.5 1.5z"/>
							<path class="s0" d="m320.8 184.4q0-71.6 0.1-143.2 16.9 0 33.8 0 0 58.5 0 117.1 22.7 0 45.5 0.4-7.4 12.8-14.9 25.6-32.3-0.4-64.5 0.1z"/>
							<path class="s0" d="m419.2 185q-0.1-71.9-0.2-143.8 17.2 0 34.4 0 0.1 72.6 0.3 145.2-17.3-0.8-34.5-1.4z"/>
							<path class="s0" d="m532.7 191.7q-6.9-26.6-13.9-53.3 0.1 26.1 0.1 52.1-15.6-1.2-31.4-2.2-0.1-73.6-0.3-147.1 15 0 30 0 6.8 28.7 13.6 57.4-0.1-28.7-0.1-57.4 15.8 0 31.6 0 0.2 76.7 0.4 153.3-15-1.5-30-2.8z"/>
							<path class="s0" d="m632.9 70.1q0 16.9 0 33.7 16.6 1 33.2 1.9-9 14.3-18.1 28.5c-6-0.5-9-0.8-15.1-1.2q0.1 20.3 0.1 40.6 21.2 2.4 42.4 5.1-8.9 13.8-18 27.5-29.3-4.2-58.6-7.8-0.2-78.6-0.4-157.2 38.5 0 77 0.1-9 14.8-18.1 29.5-12.2-0.3-24.4-0.7z"/>
						</g>
					</g>
					<path class="s0" d="m639.9 28.1q-8.3 0-16.6 0v-19.5q13.7 0 27.3 0-5.4 9.7-10.7 19.5z"/>
				</g>
				<g>
					<filter id="f1">
						<feFlood flood-color="#000000" flood-opacity="1" />
						<feBlend mode="normal" in2="SourceGraphic"/>
						<feComposite in2="SourceAlpha" operator="in" />
					</filter>
					<g filter="url(#f1)">
						<filter id="f2">
							<feFlood flood-color="#000000" flood-opacity="1" />
							<feBlend mode="normal" in2="SourceGraphic"/>
							<feComposite in2="SourceAlpha" operator="in" />
						</filter>
						<g filter="url(#f2)">
							<path class="s1" d="m222.9 256l3.7 5.2h-3.7l-3.5-5h-4.5v5h-3.2v-15.8h9.4c4.4 0 5.5 3.4 5.5 5.2 0 2-0.8 4.7-3.7 5.4zm0.8-5c0-1-0.4-2.9-2.6-2.9h-6.2v5.5h6.5c1.7-0.1 2.3-1.6 2.3-2.6z"/>
							<path class="s1" d="m246 258.5h10.1v2.7h-13.2v-15.7h13v2.6h-9.9v3.6h7.9v2.6h-7.9z"/>
							<path class="s1" d="m286.6 256.7c0 2.8-2.8 4.7-7 4.7-4.3 0-8.3-2-8.3-2l1.3-2.6c0 0 4 1.8 6.7 1.8 2.7 0 4.3-0.6 4.3-1.9 0-1.3-1-2-5-2-4.1 0-6.3-1.4-6.3-4.3 0-3.5 3-5.2 7.3-5.2 3.8 0 6.1 1.4 6.1 1.4l-1.1 2.6c0 0-2.6-1.2-5.3-1.2-2.7 0-4 1.1-4 2.1 0 1 0.3 1.8 4.9 1.8 4.2 0 6.4 2 6.4 4.8z"/>
							<path class="s1" d="m315.3 245.5v2.6h-5.3v13.1h-3.2v-13.1h-5.3v-2.6z"/>
							<path class="s1" d="m347.7 253.3c0 4.5-3.5 8.1-9 8.1-5.5 0-9.1-3.6-9.1-8.1 0-4.5 3.6-8.1 9.1-8.1 5.4 0 9 3.6 9 8.1zm-3.2 0c0-3.3-1.7-5.3-5.8-5.3-4.1 0-5.8 2-5.8 5.3 0 3.4 1.7 5.4 5.8 5.4 4.1 0 5.8-2.1 5.8-5.4z"/>
							<path class="s1" d="m378 256.9c0 3-2 4.3-5.4 4.3h-8.7v-15.7h7.4c4.9 0 5.5 2.1 5.5 4 0 1.3-0.4 2.4-1.6 3 2.1 0.6 2.8 2.1 2.8 4.4zm-11-8.8v3.3h4.6c1.8 0 2.3-0.6 2.3-1.6 0-1-0.4-1.7-2.6-1.7zm7.7 8.3c0-1.3-0.3-2.3-3.1-2.3h-4.6v4.4h5.6c1.6 0 2.1-0.8 2.1-2.1z"/>
							<path class="s1" d="m403.4 245.5l5.7 15.7h-3.1l-1.3-3.5h-7.3l-1.3 3.5h-3.2l5.8-15.7zm0.4 9.6l-2.6-7h-0.3l-2.5 7z"/>
							<path class="s1" d="m435.9 256l3.7 5.2h-3.7l-3.6-5h-4.4v5h-3.2v-15.8h9.3c4.4 0 5.6 3.4 5.6 5.2 0 2-0.9 4.7-3.7 5.4zm0.8-5c0-1-0.5-2.9-2.7-2.9h-6.1v5.5h6.5c1.7-0.1 2.3-1.6 2.3-2.6z"/>
							<path class="s1" d="m464.9 245.5l5.8 15.7h-3.2l-1.2-3.5h-7.4l-1.2 3.5h-3.2l5.8-15.7zm0.3 9.6l-2.5-7h-0.3l-2.6 7z"/>
							<path class="s1" d="m500.6 256.7c0 2.8-2.7 4.7-7 4.7-4.2 0-8.2-2-8.2-2l1.3-2.6c0 0 3.9 1.8 6.7 1.8 2.7 0 4.3-0.6 4.3-1.9 0-1.3-1-2-5-2-4.1 0-6.3-1.4-6.3-4.3 0-3.5 3-5.2 7.2-5.2 3.8 0 6.2 1.4 6.2 1.4l-1.1 2.6c0 0-2.6-1.2-5.3-1.2-2.7 0-4 1.1-4 2.1 0 1 0.2 1.8 4.9 1.8 4.1 0 6.3 2 6.3 4.8z"/>
						</g>
					</g>
					<filter id="f3">
						<feFlood flood-color="#000000" flood-opacity="1" />
						<feBlend mode="normal" in2="SourceGraphic"/>
						<feComposite in2="SourceAlpha" operator="in" />
					</filter>
					<g filter="url(#f3)">
						<path class="s1" d="m196.4 253.7q0 0.8-0.3 1.3-0.4 0.6-0.9 0.9-0.6 0.3-1.2 0.3-0.7 0-1.3-0.3-0.5-0.3-0.8-0.9-0.2-0.2-0.3-0.6h-140v-1.4h140q0.1-0.3 0.3-0.6 0.3-0.5 0.8-0.8 0.6-0.3 1.3-0.3 0.6 0 1.2 0.3 0.5 0.3 0.9 0.8 0.3 0.6 0.3 1.3z"/>
					</g>
					<filter id="f4">
						<feFlood flood-color="#000000" flood-opacity="1" />
						<feBlend mode="normal" in2="SourceGraphic"/>
						<feComposite in2="SourceAlpha" operator="in" />
					</filter>
					<g filter="url(#f4)">
						<path class="s0" d="m515.6 253.7q0 0.8 0.3 1.3 0.4 0.6 0.9 0.9 0.6 0.3 1.2 0.3 0.7 0 1.3-0.3 0.5-0.3 0.9-0.9 0.1-0.2 0.2-0.6h140v-1.4h-140q-0.1-0.3-0.2-0.6-0.4-0.5-0.9-0.8-0.6-0.3-1.3-0.3-0.6 0-1.2 0.3-0.5 0.3-0.9 0.8-0.3 0.6-0.3 1.3z"/>
					</g>
				</g>
			</g>
		</g>
	</g>
</svg>